<?xml version="1.0" encoding="UTF-8"?>
<svg xmlns="http://www.w3.org/2000/svg" xmlns:xlink="http://www.w3.org/1999/xlink" width="40px" height="40px" viewBox="0 0 40 40" version="1.1">
  <defs>
    <clipPath id="clip1">
      <path d="M 9.375 0 L 30.625 0 C 35.800781 0 40 4.199219 40 9.375 L 40 30.625 C 40 35.800781 35.800781 40 30.625 40 L 9.375 40 C 4.199219 40 0 35.800781 0 30.625 L 0 9.375 C 0 4.199219 4.199219 0 9.375 0 Z M 9.375 0 "/>
    </clipPath>
    <linearGradient id="linear0" gradientUnits="userSpaceOnUse" x1="0.711309" y1="0.953154" x2="0.288691" y2="0.0468461" gradientTransform="matrix(40,0,0,40,0,0)">
      <stop offset="0" style="stop-color:rgb(52.941176%,9.019608%,29.019608%);stop-opacity:1;"/>
      <stop offset="1" style="stop-color:rgb(67.058824%,29.019608%,94.117647%);stop-opacity:1;"/>
    </linearGradient>
    <clipPath id="clip2">
      <path d="M 7 6 L 33 6 L 33 33 L 7 33 Z M 7 6 "/>
    </clipPath>
    <clipPath id="clip3">
      <path d="M 9.375 0 L 30.625 0 C 35.800781 0 40 4.199219 40 9.375 L 40 30.625 C 40 35.800781 35.800781 40 30.625 40 L 9.375 40 C 4.199219 40 0 35.800781 0 30.625 L 0 9.375 C 0 4.199219 4.199219 0 9.375 0 Z M 9.375 0 "/>
    </clipPath>
  </defs>
  <g id="surface1">
    <g clip-path="url(#clip1)" clip-rule="nonzero">
      <path style=" stroke:none;fill-rule:nonzero;fill:url(#linear0);" d="M 9.375 0 L 30.625 0 C 35.800781 0 40 4.199219 40 9.375 L 40 30.625 C 40 35.800781 35.800781 40 30.625 40 L 9.375 40 C 4.199219 40 0 35.800781 0 30.625 L 0 9.375 C 0 4.199219 4.199219 0 9.375 0 Z M 9.375 0 "/>
    </g>
    <g clip-path="url(#clip2)" clip-rule="nonzero">
      <g clip-path="url(#clip3)" clip-rule="nonzero">
        <path style=" stroke:none;fill-rule:nonzero;fill:rgb(98.823529%,98.823529%,98.823529%);fill-opacity:1;" d="M 28.570312 15.027344 L 28.398438 15.746094 C 28.34375 15.984375 28.152344 16.167969 27.910156 16.210938 C 27.667969 16.253906 27.425781 16.148438 27.292969 15.941406 L 26.882812 15.324219 C 26.164062 14.230469 25.058594 13.445312 23.789062 13.125 L 22.820312 12.882812 C 22.578125 12.820312 22.398438 12.621094 22.355469 12.375 C 22.3125 12.132812 22.414062 11.882812 22.617188 11.742188 L 23.398438 11.214844 C 24.511719 10.460938 25.289062 9.308594 25.578125 7.996094 L 25.75 7.21875 C 25.800781 6.972656 25.992188 6.785156 26.238281 6.742188 C 26.484375 6.699219 26.734375 6.808594 26.863281 7.023438 L 27.289062 7.691406 C 28.007812 8.828125 29.132812 9.644531 30.4375 9.976562 L 31.351562 10.203125 C 31.59375 10.265625 31.773438 10.464844 31.816406 10.707031 C 31.859375 10.953125 31.757812 11.199219 31.554688 11.339844 L 30.726562 11.898438 C 29.640625 12.636719 28.871094 13.75 28.570312 15.027344 M 11.488281 13.003906 C 10.179688 13.234375 9.308594 14.480469 9.539062 15.785156 L 11.625 27.613281 C 11.855469 28.921875 13.101562 29.792969 14.40625 29.5625 L 28.601562 27.0625 C 29.910156 26.832031 30.78125 25.585938 30.550781 24.277344 L 29.507812 18.363281 L 31.875 17.945312 L 32.917969 23.859375 C 33.378906 26.472656 31.632812 28.964844 29.019531 29.425781 L 14.824219 31.929688 C 12.210938 32.390625 9.71875 30.644531 9.257812 28.03125 L 7.171875 16.203125 C 6.710938 13.589844 8.457031 11.097656 11.070312 10.636719 L 19.351562 9.175781 L 19.769531 11.542969 Z M 11.488281 13.003906 "/>
      </g>
    </g>
  </g>
</svg>
